<svg xmlns="http://www.w3.org/2000/svg" version="1.1" xmlns:xlink="http://www.w3.org/1999/xlink" xmlns:svgjs="http://svgjs.dev/svgjs" width="2000" height="1500" viewBox="0 0 2000 1500"><rect width="2000" height="1500" fill="#000000"></rect><g transform="matrix(0.75,0,0,0.75,249.090909090909,426.8929671852377)"><svg viewBox="0 0 396 171" data-background-color="#000000" preserveAspectRatio="xMidYMid meet" height="863" width="2000" xmlns="http://www.w3.org/2000/svg" xmlns:xlink="http://www.w3.org/1999/xlink"><g id="tight-bounds" transform="matrix(1,0,0,1,0.2400000000000091,-0.13684416944865063)"><svg viewBox="0 0 395.52 171.2736883388973" height="171.2736883388973" width="395.52"><g><svg viewBox="0 0 395.52 171.2736883388973" height="171.2736883388973" width="395.52"><g><svg viewBox="0 0 395.52 171.2736883388973" height="171.2736883388973" width="395.52"><g id="textblocktransform"><svg viewBox="0 0 395.52 171.2736883388973" height="171.2736883388973" width="395.52" id="textblock"><g><svg viewBox="0 0 395.52 171.2736883388973" height="171.2736883388973" width="395.52"><g transform="matrix(1,0,0,1,0,0)"><svg width="395.52" viewBox="3.0299999999999994 -35.51044921875 83.12 36.00044921875" height="171.2736883388973" data-palette-color="url(#67e103ba-35e3-419b-aee4-a5fc70269e53)"></svg></g></svg></g></svg></g></svg></g><g></g></svg></g><defs></defs><mask id="85f52aa7-8101-445f-b37a-b55fee409e34"><g id="SvgjsG2473"><svg viewBox="0 0 395.52 171.2736883388973" height="171.2736883388973" width="395.52"><g><svg viewBox="0 0 395.52 171.2736883388973" height="171.2736883388973" width="395.52"><g><svg viewBox="0 0 395.52 171.2736883388973" height="171.2736883388973" width="395.52"><g id="SvgjsG2472"><svg viewBox="0 0 395.52 171.2736883388973" height="171.2736883388973" width="395.52" id="SvgjsSvg2471"><g><svg viewBox="0 0 395.52 171.2736883388973" height="171.2736883388973" width="395.52"><g transform="matrix(1,0,0,1,0,0)"><svg width="395.52" viewBox="3.0299999999999994 -35.51044921875 83.12 36.00044921875" height="171.2736883388973" data-palette-color="url(#67e103ba-35e3-419b-aee4-a5fc70269e53)"><path d="M38.04-31.81L38.04 0 31.69 0 31.69-8.59 9.38-8.59 9.38 0 3.03 0 3.03-17.5Q3.03-21.34 4.35-24.56 5.66-27.78 8.01-30.1 10.35-32.42 13.55-33.72 16.75-35.01 20.53-35.01L20.53-35.01 34.84-35.01Q35.5-35.01 36.08-34.77 36.67-34.52 37.11-34.08 37.55-33.64 37.79-33.06 38.04-32.47 38.04-31.81L38.04-31.81ZM9.38-17.5L9.38-14.94 31.69-14.94 31.69-28.66 20.53-28.66Q20.24-28.66 19.3-28.58 18.36-28.49 17.13-28.15 15.89-27.81 14.53-27.1 13.16-26.39 12.01-25.15 10.86-23.9 10.12-22.03 9.38-20.17 9.38-17.5L9.38-17.5ZM86.15-32.3L86.15 0 79.76 0 79.76-20.85 68.5-1.05Q68.09-0.29 67.34 0.1 66.6 0.49 65.74 0.49L65.74 0.49Q64.91 0.49 64.19 0.1 63.47-0.29 63.06-1.05L63.06-1.05 51.76-20.85 51.76 0 45.41 0 45.41-32.3Q45.41-33.4 46.05-34.25 46.7-35.11 47.75-35.4L47.75-35.4Q48.26-35.52 48.78-35.49 49.29-35.45 49.77-35.27 50.24-35.08 50.63-34.75 51.02-34.42 51.29-33.96L51.29-33.96 65.74-8.84 80.2-33.96Q80.76-34.89 81.75-35.28 82.74-35.67 83.81-35.4L83.81-35.4Q84.84-35.11 85.5-34.25 86.15-33.4 86.15-32.3L86.15-32.3Z" opacity="1" transform="matrix(1,0,0,1,0,0)" fill="white" class="wordmark-text-0" id="SvgjsPath2470"></path></svg></g></svg></g></svg></g></svg></g><g></g></svg></g><defs><mask></mask></defs></svg><rect width="395.52" height="171.2736883388973" fill="black" stroke="none" visibility="hidden"></rect></g></mask><linearGradient x1="0" x2="1" y1="0.5" y2="0.5" id="67e103ba-35e3-419b-aee4-a5fc70269e53"><stop stop-color="#ffa62e" offset="0"></stop><stop stop-color="#f71b3d" offset="1"></stop></linearGradient><rect width="395.52" height="171.2736883388973" fill="url(#67e103ba-35e3-419b-aee4-a5fc70269e53)" mask="url(#85f52aa7-8101-445f-b37a-b55fee409e34)" data-fill-palette-color="primary"></rect></svg><rect width="395.52" height="171.2736883388973" fill="none" stroke="none" visibility="hidden"></rect></g></svg></g></svg>